<svg width="18" height="18" viewBox="0 0 18 18" fill="none" xmlns="http://www.w3.org/2000/svg">
<path fill-rule="evenodd" clip-rule="evenodd" d="M10.9735 10.9736V3.75439H3.75433V10.9736H10.9735ZM12.4735 3.00439C12.4735 2.59018 12.1377 2.25439 11.7235 2.25439H3.00433C2.59012 2.25439 2.25433 2.59018 2.25433 3.00439V11.7236C2.25433 12.1378 2.59012 12.4736 3.00433 12.4736H11.7235C12.1377 12.4736 12.4735 12.1378 12.4735 11.7236V3.00439ZM14.25 6.43909C14.25 6.02487 14.5858 5.68909 15 5.68909C15.4142 5.68909 15.75 6.02487 15.75 6.43909V14.6249C15.75 15.2462 15.2463 15.7499 14.625 15.7499H6.43917C6.02495 15.7499 5.68917 15.4141 5.68917 14.9999C5.68917 14.5857 6.02495 14.2499 6.43917 14.2499H14.25V6.43909Z" fill="white"/>
</svg>
