<svg width="25" height="24" viewBox="0 0 25 24" fill="none" xmlns="http://www.w3.org/2000/svg">
<path d="M8.36853 19.3153C8.36853 19.4144 8.25281 19.4937 8.10691 19.4937C7.94088 19.5086 7.82516 19.4293 7.82516 19.3153C7.82516 19.2162 7.94088 19.1369 8.08678 19.1369C8.23772 19.122 8.36853 19.2013 8.36853 19.3153ZM6.80384 19.0923C6.76863 19.1914 6.86925 19.3054 7.02018 19.3351C7.15099 19.3847 7.30193 19.3351 7.33211 19.236C7.3623 19.1369 7.26671 19.0229 7.11578 18.9783C6.98497 18.9436 6.83906 18.9931 6.80384 19.0923ZM9.02761 19.008C8.8817 19.0427 8.78108 19.1369 8.79617 19.2509C8.81127 19.35 8.94208 19.4144 9.09301 19.3797C9.23891 19.345 9.33953 19.2509 9.32444 19.1517C9.30935 19.0576 9.17351 18.9931 9.02761 19.008ZM12.3381 0.0146484C5.35991 0.0146484 0.0218811 5.23386 0.0218811 12.1085C0.0218811 17.6053 3.53361 22.309 8.54965 23.9645C9.19363 24.0785 9.42003 23.6869 9.42003 23.3648C9.42003 23.0575 9.40494 21.3623 9.40494 20.3215C9.40494 20.3215 5.88315 21.065 5.14357 18.8444C5.14357 18.8444 4.57002 17.4021 3.74492 17.0304C3.74492 17.0304 2.59279 16.2522 3.82542 16.267C3.82542 16.267 5.07817 16.3662 5.76743 17.5458C6.86925 19.459 8.71567 18.9089 9.43513 18.5817C9.55084 17.7887 9.87787 17.2385 10.2401 16.9114C7.42771 16.6041 4.59015 16.2026 4.59015 11.4345C4.59015 10.0714 4.97251 9.38741 5.77749 8.51507C5.64669 8.19289 5.21904 6.86455 5.9083 5.14959C6.95981 4.82742 9.37978 6.48785 9.37978 6.48785C10.386 6.21029 11.4677 6.06655 12.5393 6.06655C13.611 6.06655 14.6927 6.21029 15.6989 6.48785C15.6989 6.48785 18.1189 4.82246 19.1704 5.14959C19.8596 6.8695 19.432 8.19289 19.3012 8.51507C20.1062 9.39237 20.5992 10.0764 20.5992 11.4345C20.5992 16.2175 17.6359 16.5991 14.8235 16.9114C15.2863 17.303 15.6788 18.0464 15.6788 19.2112C15.6788 20.8816 15.6637 22.9484 15.6637 23.3549C15.6637 23.677 15.8951 24.0686 16.5341 23.9546C21.5652 22.309 24.9763 17.6053 24.9763 12.1085C24.9763 5.23386 19.3163 0.0146484 12.3381 0.0146484ZM4.91214 17.1097C4.84674 17.1592 4.86183 17.2732 4.94736 17.3674C5.02786 17.4467 5.14357 17.4814 5.20898 17.417C5.27438 17.3674 5.25929 17.2534 5.17376 17.1592C5.09326 17.0799 4.97754 17.0452 4.91214 17.1097ZM4.36878 16.7082C4.33356 16.7726 4.38387 16.8519 4.48449 16.9015C4.56499 16.951 4.66561 16.9362 4.70083 16.8668C4.73605 16.8024 4.68574 16.723 4.58512 16.6735C4.48449 16.6437 4.404 16.6586 4.36878 16.7082ZM5.99886 18.4727C5.91837 18.5371 5.94855 18.6858 6.06427 18.78C6.17998 18.894 6.32589 18.9089 6.39129 18.8296C6.4567 18.7651 6.42651 18.6164 6.32589 18.5223C6.2152 18.4083 6.06427 18.3934 5.99886 18.4727ZM5.42532 17.7441C5.34482 17.7937 5.34482 17.9225 5.42532 18.0365C5.50581 18.1505 5.64165 18.2001 5.70706 18.1505C5.78756 18.0861 5.78756 17.9572 5.70706 17.8432C5.63662 17.7292 5.50581 17.6797 5.42532 17.7441Z" fill="black"/>
</svg>
