<svg width="18" height="18" viewBox="0 0 18 18" fill="none" xmlns="http://www.w3.org/2000/svg">
<path fill-rule="evenodd" clip-rule="evenodd" d="M1.995 2.85617C1.995 2.39411 2.36679 2 2.85035 2H5.49539C5.92525 2 6.27373 2.34847 6.27373 2.77834C6.27373 3.20821 5.92525 3.55668 5.49539 3.55668H3.55168V14.4437H14.4387V12.5C14.4387 12.0701 14.7871 11.7216 15.217 11.7216C15.6469 11.7216 15.9953 12.0701 15.9953 12.5V15.1442C15.9953 15.617 15.612 16.0004 15.1392 16.0004H2.85117C2.37832 16.0004 1.995 15.617 1.995 15.1442V2.85617ZM14.4486 4.65719L7.91887 11.1869C7.61491 11.4909 7.1221 11.4909 6.81814 11.1869C6.51418 10.883 6.51418 10.3901 6.81814 10.0862L13.3476 3.55668H10.2915C9.8616 3.55668 9.51312 3.20821 9.51312 2.77834C9.51312 2.34847 9.8616 2 10.2915 2H14.8378C15.4826 2 16.0053 2.52271 16.0053 3.16751V7.68615C16.0053 8.11601 15.6568 8.46449 15.227 8.46449C14.7971 8.46449 14.4486 8.11601 14.4486 7.68615V4.65719Z" fill="white"/>
</svg>
